<svg width="14" height="12" viewBox="0 0 14 12" xmlns="http://www.w3.org/2000/svg">
<path d="M13.7926 2.44772C13.7306 2.39418 13.6575 2.35649 13.5793 2.33761C13.501 2.31874 13.4196 2.3192 13.3415 2.33896L10.3704 3.24712V2.33896C10.3704 1.90627 10.2065 1.49131 9.91476 1.18536C9.62304 0.879403 9.22737 0.70752 8.81481 0.70752H1.55556C1.143 0.70752 0.747335 0.879403 0.455612 1.18536C0.163888 1.49131 0 1.90627 0 2.33896V9.95233C0 10.385 0.163888 10.8 0.455612 11.1059C0.747335 11.4119 1.143 11.5838 1.55556 11.5838H8.81481C9.22737 11.5838 9.62304 11.4119 9.91476 11.1059C10.2065 10.8 10.3704 10.385 10.3704 9.95233V9.04416L13.3415 9.95233C13.3878 9.96024 13.4351 9.96024 13.4815 9.95233C13.619 9.95233 13.7509 9.89503 13.8481 9.79305C13.9454 9.69106 14 9.55274 14 9.40851V2.88277C14 2.79834 13.9813 2.71508 13.9453 2.63957C13.9093 2.56406 13.857 2.49837 13.7926 2.44772ZM9.33333 9.95233C9.33333 10.0966 9.2787 10.2349 9.18146 10.3369C9.08422 10.4388 8.95233 10.4961 8.81481 10.4961H1.55556C1.41804 10.4961 1.28615 10.4388 1.18891 10.3369C1.09167 10.2349 1.03704 10.0966 1.03704 9.95233V2.33896C1.03704 2.19473 1.09167 2.05641 1.18891 1.95442C1.28615 1.85244 1.41804 1.79514 1.55556 1.79514H8.81481C8.95233 1.79514 9.08422 1.85244 9.18146 1.95442C9.2787 2.05641 9.33333 2.19473 9.33333 2.33896V9.95233ZM12.963 8.68524L10.3704 7.91303V4.37825L12.963 3.60604V8.68524Z" fill="#BBBCBC"/>
</svg>
