<svg width="14" height="12" viewBox="0 0 14 12" fill="none" xmlns="http://www.w3.org/2000/svg">
<g id="dashboard" clip-path="url(#clip0_1_655)">
<g id="Group">
<g id="Group_2">
<g id="Group_3">
<path id="Vector" d="M7.42233 7.85732L7.42213 7.85752C7.1894 8.09031 6.81077 8.09031 6.57805 7.85752M7.42233 7.85732L6.57805 7.85752M7.42233 7.85732C7.4675 7.81161 7.55331 7.70369 7.67002 7.54873C7.78764 7.39256 7.93879 7.18569 8.11564 6.93959C8.46936 6.44734 8.92644 5.79735 9.4248 5.08038L9.3552 5.01079C8.63823 5.50915 7.98823 5.96624 7.49596 6.31997C7.24985 6.49682 7.04297 6.64798 6.88678 6.76561C6.7318 6.88233 6.62387 6.96815 6.57815 7.01333L6.57794 7.01354M7.42233 7.85732L6.57794 7.01354M6.57805 7.85752C6.3453 7.6248 6.34527 7.24629 6.57794 7.01354M6.57805 7.85752L6.57794 7.01354M8.12486 8.56023C8.12486 8.56023 8.12486 8.56023 8.12486 8.56024C7.81477 8.87027 7.40754 9.02534 7.0001 9.02534C6.59267 9.02534 6.1854 8.87026 5.87535 8.56024C5.25519 7.94005 5.25519 6.9309 5.87534 6.31072C5.98213 6.20394 6.31734 5.94868 6.77848 5.61388C7.23771 5.28047 7.81739 4.87131 8.40907 4.45836C9.59236 3.6325 10.8228 2.79202 11.2319 2.51317L8.12486 8.56023ZM8.12486 8.56023C8.23165 8.45344 8.48691 8.11824 8.8217 7.6571C9.1551 7.19787 9.56426 6.61819 9.97721 6.02651C10.8031 4.84323 11.6435 3.61275 11.9224 3.20364M8.12486 8.56023L11.9224 3.20364M11.9224 3.20364C12.0568 3.0063 12.032 2.74126 11.8632 2.57239M11.9224 3.20364L11.8632 2.57239M11.8632 2.57239C11.8632 2.57239 11.8632 2.57239 11.8632 2.57239L11.8632 2.57239Z" fill="#BBBCBC" stroke="white" stroke-width="0.1"/>
<path id="Vector_2" d="M1.80321 10.3329L1.82629 10.3741L1.86875 10.3534L2.54386 10.0241C2.79052 9.90378 3.088 10.0062 3.20831 10.2528C3.32863 10.4994 3.22623 10.7969 2.97958 10.9172L1.85848 11.4641C1.7886 11.4982 1.71431 11.5144 1.64095 11.5144C1.47943 11.5144 1.32248 11.4356 1.22755 11.2937C0.457106 10.1413 0.05 8.80716 0.05 7.43549C0.05 5.57898 0.772869 3.83385 2.08559 2.52108C3.39837 1.20833 5.1435 0.485486 7 0.485486C7.99536 0.485486 8.95642 0.691592 9.85678 1.09801C10.1069 1.21093 10.2181 1.5052 10.1052 1.75533C9.99231 2.00539 9.69797 2.11665 9.44794 2.00374L9.42736 2.04931L9.44793 2.00374C8.84439 1.7313 8.20854 1.56395 7.55144 1.50413L7.4969 1.49917V1.55393V2.37686C7.4969 2.65129 7.27445 2.87374 7.00003 2.87374C6.7256 2.87374 6.50315 2.65129 6.50315 2.37686V1.55434V1.49951L6.44856 1.50455C4.53192 1.68132 2.87564 2.76993 1.91841 4.33107L1.88944 4.37832L1.93942 4.40229L2.70318 4.76864L2.72481 4.72356L2.70318 4.76864C2.95062 4.88732 3.05497 5.18413 2.93632 5.43155C2.85091 5.60961 2.67322 5.71366 2.48793 5.71366C2.41593 5.71366 2.34281 5.69794 2.27341 5.66466C2.27341 5.66466 2.27341 5.66466 2.27341 5.66466L1.49983 5.2936L1.45083 5.2701L1.43148 5.32088C1.18099 5.97837 1.04375 6.69126 1.04375 7.43549C1.04375 8.45145 1.30507 9.44387 1.80321 10.3329Z" fill="#BBBCBC" stroke="white" stroke-width="0.1"/>
<path id="Vector_3" d="M13.3373 4.57865L13.3374 4.57866C13.7438 5.479 13.9499 6.44006 13.9499 7.43541C13.9499 8.80709 13.5428 10.1412 12.7723 11.2936L12.7723 11.2936C12.6775 11.4354 12.5206 11.5144 12.359 11.5144C12.2871 11.5144 12.2143 11.4988 12.1456 11.4661C12.1456 11.4661 12.1456 11.4661 12.1456 11.4661L10.9972 10.9192C10.7494 10.8012 10.6442 10.5047 10.7622 10.257C10.8802 10.0092 11.1767 9.90401 11.4244 10.022L12.1293 10.3576L12.1715 10.3777L12.1944 10.3369C12.694 9.44691 12.9562 8.45289 12.9562 7.43541C12.9562 6.5822 12.7797 5.75851 12.4316 4.98751C12.3187 4.73741 12.4299 4.44313 12.68 4.33022C12.9302 4.21725 13.2245 4.32855 13.3373 4.57865ZM13.9999 7.43541C13.9999 6.43302 13.7923 5.46494 13.3829 4.55808L12.8139 11.3214C13.5898 10.1609 13.9999 8.81709 13.9999 7.43541Z" fill="#BBBCBC" stroke="white" stroke-width="0.1"/>
</g>
</g>
</g>
</g>
<defs>
<clipPath id="clip0_1_655">
<rect width="13.9999" height="11.1289" fill="white" transform="translate(0 0.435486)"/>
</clipPath>
</defs>
</svg>
