<svg xmlns="http://www.w3.org/2000/svg" version="1.1"
    xmlnsXlink="http://www.w3.org/1999/xlink"
     width="512" height="512" x="0" y="0" viewBox="0 0 64 64" style="enable-background:new 0 0 512 512"  xmlSpace="preserve" className="">
    <g>
        <path xmlns="http://www.w3.org/2000/svg" d="m51.33 34.8c3.5 2.17 5.67 6.08 5.67 10.19 0 4.45-2.55 8.64-6.51 10.68-1.66.85-3.55 1.311-5.46 1.311-1.49 0-2.96-.28-4.33-.801-1.01-.38-1.96-.89-2.82-1.529-3.33-2.46-5.18-6.551-4.84-10.681.35-4.069 2.82-7.77 6.47-9.649 1.67-.86 3.561-1.311 5.48-1.311.39 0 .79.021 1.17.07 1.85.16 3.62.75 5.17 1.72zm-.67 5.95c.39-.39.39-1.02 0-1.41-.391-.39-1.03-.39-1.42 0l-4.24 4.24-4.24-4.24c-.39-.39-1.029-.39-1.42 0-.39.391-.39 1.021 0 1.41l4.25 4.25-4.25 4.24c-.39.39-.39 1.02 0 1.41.2.199.45.29.71.29s.51-.091.71-.29l4.24-4.24 4.24 4.24c.2.199.45.29.71.29s.51-.091.71-.29c.39-.391.39-1.021 0-1.41l-4.24-4.24z" fill="#000000" data-original="#000000" class=""></path>
        <path xmlns="http://www.w3.org/2000/svg" d="m41.5 18.49c0 3.109-1.26 6.02-3.56 8.2-.46.439-.96.84-1.48 1.189-1.96 1.34-4.29 2.09-6.63 2.09-1.77 0-3.48-.42-5.07-1.239-.45-.23-.87-.49-1.28-.761-.01-.02-.01-.02-.02-.02-2.9-2.03-4.79-5.4-4.95-8.94-.18-4.149 1.89-8.09 5.41-10.279 1.81-1.13 3.91-1.72 6.09-1.72 2 0 3.95.51 5.66 1.471 3.59 2.049 5.83 5.879 5.83 10.009z" fill="#000000" data-original="#000000" class=""></path>
        <path xmlns="http://www.w3.org/2000/svg" d="m37.19 29.79c1.689.37 3.359.88 4.97 1.51-1.25.25-2.45.67-3.57 1.24-4.25 2.2-7.14 6.51-7.54 11.26-.41 4.82 1.75 9.59 5.641 12.46.149.11.3.221.449.32-9.49 1.1-19.16-.021-28.169-3.29-1.181-.43-1.971-1.56-1.971-2.82v-6.96c0-3.77 1.89-7.229 5.07-9.27 3.26-2.09 6.82-3.58 10.6-4.42.38.25.77.479 1.18.689 1.88.971 3.89 1.46 5.98 1.46 2.58.001 5.16-.779 7.36-2.179z" fill="#000000" data-original="#000000" class=""></path>
    </g>
</svg>