<svg width="14" height="14" viewBox="0 0 14 14" fill="none" xmlns="http://www.w3.org/2000/svg">
<path d="M13.6328 1.8668C13.388 1.62198 13.0937 1.49963 12.75 1.49963H1.25003C0.906283 1.49963 0.61196 1.62198 0.367165 1.8668C0.122343 2.11157 0 2.40586 0 2.74966V11.2497C0 11.5936 0.122343 11.8876 0.367165 12.1324C0.611933 12.3774 0.906256 12.4997 1.25003 12.4997H12.75C13.0937 12.4997 13.388 12.3774 13.6328 12.1324C13.8777 11.8876 14 11.5934 14 11.2497V2.74966C13.9999 2.40586 13.8777 2.11157 13.6328 1.8668ZM12.9999 11.2495C12.9999 11.3173 12.9751 11.3758 12.9256 11.4253C12.8761 11.4748 12.8175 11.4994 12.7499 11.4994H1.24994C1.18225 11.4994 1.12363 11.4748 1.07419 11.4253C1.02469 11.3758 0.999976 11.3173 0.999976 11.2495V5.24958C1.16662 5.43708 1.34632 5.60897 1.53904 5.76519C2.93491 6.8381 4.04426 7.71825 4.8672 8.40579C5.13281 8.62979 5.34899 8.80423 5.51563 8.92926C5.68228 9.05434 5.90753 9.18059 6.19135 9.30813C6.47519 9.43587 6.74215 9.49943 6.99215 9.49943H7H7.00777C7.25771 9.49943 7.52478 9.43587 7.80851 9.30813C8.09244 9.18059 8.31783 9.05436 8.48442 8.92926C8.65104 8.80423 8.86724 8.62979 9.13288 8.40579C9.95582 7.71825 11.065 6.8381 12.461 5.76519C12.6537 5.609 12.8335 5.43708 12.9999 5.24958V11.2495ZM12.9999 2.95273V3.03865C12.9999 3.34592 12.8789 3.6884 12.6367 4.06596C12.3945 4.44353 12.1327 4.74436 11.8516 4.96825C10.8463 5.76005 9.80217 6.58548 8.71863 7.44483C8.68743 7.47086 8.5962 7.54764 8.4451 7.67518C8.29422 7.80291 8.17436 7.90068 8.08579 7.9683C7.9971 8.03611 7.88135 8.11812 7.73819 8.21438C7.59491 8.31065 7.46343 8.38239 7.34366 8.42921C7.22389 8.47592 7.11189 8.49932 7.00777 8.49932H7H6.99215C6.888 8.49932 6.77611 8.47592 6.65626 8.42921C6.53649 8.38239 6.40492 8.31065 6.26176 8.21438C6.11862 8.11809 6.0027 8.03608 5.91416 7.9683C5.82566 7.90068 5.70581 7.80291 5.55482 7.67518C5.40377 7.54764 5.31254 7.47086 5.28132 7.44483C4.19802 6.58545 3.15379 5.76005 2.14854 4.96825C1.38288 4.36417 1.00011 3.62453 1.00011 2.74952C1.00011 2.68188 1.02482 2.62324 1.07432 2.57382C1.12382 2.52432 1.18238 2.49956 1.25008 2.49956H12.7501C12.7917 2.52295 12.8282 2.52947 12.8595 2.51912C12.8907 2.50859 12.9141 2.52818 12.9297 2.57763C12.9453 2.62713 12.9596 2.65052 12.9726 2.64795C12.9857 2.64532 12.9935 2.67786 12.9961 2.74567C12.9986 2.81334 12.9999 2.8474 12.9999 2.8474V2.95273H12.9999Z" fill="#BBBCBC"/>
</svg>
