<svg width="16" height="16" viewBox="0 0 16 16" fill="none" xmlns="http://www.w3.org/2000/svg">
<path d="M8.02066 14.2568H8.02055C6.54357 14.2584 5.2054 13.762 4.13973 12.9196C4.18972 12.3664 4.50141 10.7645 6.27597 9.83169C6.76604 10.1961 7.35731 10.4025 8.00082 10.4025C8.64543 10.4025 9.25343 10.1784 9.74367 9.81367C11.5034 10.7469 11.8303 12.3185 11.897 12.9023C10.8305 13.7435 9.47684 14.2568 8.02066 14.2568ZM15.1 8.00082C15.1 4.08802 11.912 0.9 7.99918 0.9C4.08635 0.9 0.9 4.08805 0.9 8.00082C0.9 10.155 1.87677 12.0925 3.39569 13.3951C3.41363 13.4131 3.43837 13.4371 3.47945 13.4587C4.70925 14.4874 6.2827 15.1 8.01736 15.1C9.71294 15.1 11.2831 14.4895 12.5111 13.5012C12.5973 13.4721 12.6601 13.41 12.7004 13.3511C14.163 12.0309 15.1 10.133 15.1 8.00082ZM1.7432 8.00082C1.7432 4.55564 4.55564 1.7432 8.00082 1.7432C11.446 1.7432 14.2584 4.55564 14.2584 8.00082C14.2584 9.62199 13.6429 11.0958 12.6278 12.2077C12.413 11.3566 11.8515 10.068 10.3638 9.18676C10.7097 8.71704 10.9035 8.125 10.9035 7.50149C10.9035 5.91017 9.60868 4.61538 8.01736 4.61538C6.42605 4.61538 5.13125 5.91017 5.13125 7.50149C5.13125 8.12896 5.34348 8.70456 5.67426 9.1843C4.17132 10.065 3.60763 11.3545 3.40664 12.2082C2.37509 11.1113 1.7432 9.62143 1.7432 8.00082ZM5.95791 7.51801C5.95791 6.39431 6.87712 5.47509 8.00082 5.47509C9.12452 5.47509 10.0437 6.39431 10.0437 7.51801C10.0437 8.64171 9.12452 9.56092 8.00082 9.56092C6.87712 9.56092 5.95791 8.64171 5.95791 7.51801Z" fill="white" stroke="white" stroke-width="0.2"/>
</svg>
