<svg xmlns="http://www.w3.org/2000/svg" version="1.1"
    xmlnsXlink="http://www.w3.org/1999/xlink"
    width="512" height="512" x="0" y="0" viewBox="0 0 25 25" style="enable-background:new 0 0 512 512" xmlSpace="preserve">
    <g>
        <g xmlns="http://www.w3.org/2000/svg" id="Layer_28" data-name="Layer 28">
            <path d="M2.54,5H15v.5A1.5,1.5,0,0,0,16.5,7h2A1.5,1.5,0,0,0,20,5.5V5h2.33a.5.5,0,0,0,0-1H20V3.5A1.5,1.5,0,0,0,18.5,2h-2A1.5,1.5,0,0,0,15,3.5V4H2.54a.5.5,0,0,0,0,1ZM16,3.5a.5.5,0,0,1,.5-.5h2a.5.5,0,0,1,.5.5v2a.5.5,0,0,1-.5.5h-2a.5.5,0,0,1-.5-.5Z" fill="#000000" data-original="#000000"></path>
            <path d="M22.4,20H18v-.5A1.5,1.5,0,0,0,16.5,18h-2A1.5,1.5,0,0,0,13,19.5V20H2.55a.5.5,0,0,0,0,1H13v.5A1.5,1.5,0,0,0,14.5,23h2A1.5,1.5,0,0,0,18,21.5V21h4.4a.5.5,0,0,0,0-1ZM17,21.5a.5.5,0,0,1-.5.5h-2a.5.5,0,0,1-.5-.5v-2a.5.5,0,0,1,.5-.5h2a.5.5,0,0,1,.5.5Z" fill="#000000" data-original="#000000"></path>
            <path d="M8.5,15h2A1.5,1.5,0,0,0,12,13.5V13H22.45a.5.5,0,1,0,0-1H12v-.5A1.5,1.5,0,0,0,10.5,10h-2A1.5,1.5,0,0,0,7,11.5V12H2.6a.5.5,0,1,0,0,1H7v.5A1.5,1.5,0,0,0,8.5,15ZM8,11.5a.5.5,0,0,1,.5-.5h2a.5.5,0,0,1,.5.5v2a.5.5,0,0,1-.5.5h-2a.5.5,0,0,1-.5-.5Z" fill="#000000" data-original="#000000"></path>
        </g>
    </g>
</svg>