<svg width="14" height="14" viewBox="0 0 14 14" fill="none" xmlns="http://www.w3.org/2000/svg">
<g clip-path="url(#clip0_1_614)">
<path d="M7.58802 0.725143C4.11274 0.725143 1.28539 3.55227 1.28583 7.00961C1.28321 7.06452 1.25149 7.97977 1.51202 8.96546L0.663049 8.47065C0.452174 8.34815 0.183549 8.41924 0.0597365 8.62968C-0.062326 8.83968 0.00854903 9.10983 0.218768 9.23233L2.2083 10.3921C2.21246 10.3943 2.21661 10.395 2.22055 10.397C2.24177 10.4083 2.26342 10.4166 2.28639 10.4245C2.30192 10.43 2.31702 10.4357 2.33255 10.4394C2.35158 10.4436 2.37039 10.4449 2.38986 10.4466C2.40342 10.4479 2.41699 10.4521 2.43055 10.4521C2.43821 10.4521 2.44542 10.4495 2.4533 10.449C2.46074 10.4488 2.46708 10.4506 2.47452 10.4499C2.48546 10.4488 2.4953 10.4442 2.50602 10.4425C2.52724 10.4387 2.54736 10.4341 2.5677 10.4276C2.58477 10.4219 2.60161 10.4151 2.61802 10.4072C2.63639 10.3985 2.65367 10.3889 2.67074 10.3775C2.68627 10.3674 2.70114 10.3565 2.71514 10.3447C2.73067 10.3316 2.74445 10.3173 2.75824 10.302C2.77114 10.2878 2.7823 10.2729 2.79302 10.2572C2.79892 10.2484 2.8068 10.2421 2.81205 10.2331C2.81599 10.2263 2.81599 10.2185 2.81927 10.2117C2.82517 10.1996 2.83436 10.1891 2.83961 10.1762L3.63105 8.21668C3.72227 7.99093 3.61333 7.73389 3.3878 7.64268C3.16183 7.55211 2.90502 7.66061 2.8138 7.88636L2.40736 8.89261C2.13611 7.98546 2.16695 7.05336 2.16783 7.02777C2.16783 4.03877 4.59967 1.60714 7.58823 1.60714C10.577 1.60714 13.0086 4.03877 13.0086 7.02777C13.0086 10.0163 10.577 12.448 7.58823 12.448C7.34455 12.448 7.14724 12.6455 7.14724 12.889C7.14724 13.1324 7.34433 13.33 7.58823 13.33C11.0637 13.33 13.8909 10.5028 13.8909 7.02777C13.8904 3.55227 11.0633 0.725143 7.58802 0.725143Z" fill="#BBBCBC"/>
<path d="M7.41916 7.8753C7.46357 7.89367 7.51038 7.90024 7.55785 7.90352C7.56769 7.90418 7.57732 7.90943 7.58716 7.90943C7.63879 7.90943 7.68888 7.89761 7.73679 7.88011C7.75013 7.8753 7.7626 7.8683 7.77551 7.86196C7.81204 7.84446 7.84573 7.82214 7.87679 7.7948C7.88357 7.78889 7.89254 7.78671 7.89932 7.77993L10.6527 5.02652C10.8251 4.85414 10.8251 4.57524 10.6527 4.40286C10.4806 4.23049 10.2017 4.23049 10.0291 4.40286L7.48457 6.94714L5.20104 5.99077C4.97507 5.89649 4.71782 6.00236 4.62354 6.22724C4.52947 6.45189 4.63557 6.71024 4.85979 6.8043L7.41654 7.87486C7.41741 7.87508 7.41829 7.87508 7.41916 7.8753Z" fill="#BBBCBC"/>
</g>
<defs>
<clipPath id="clip0_1_614">
<rect width="14" height="14" fill="white"/>
</clipPath>
</defs>
</svg>
