<svg width="14" height="14" viewBox="0 0 14 14" fill="none" xmlns="http://www.w3.org/2000/svg">
<path d="M11.877 0.742229H1.21075C0.542073 0.742229 0 1.2843 0 1.95298V12.6192C0 13.2879 0.542073 13.83 1.21075 13.83H11.877C12.5457 13.83 13.0877 13.2879 13.0877 12.6192V1.95298C13.0877 1.2843 12.5457 0.742229 11.877 0.742229ZM12.1595 11.8634C12.1595 12.4369 11.6946 12.9018 11.121 12.9018H1.96659C1.39305 12.9017 0.928207 12.4368 0.928207 11.8634V2.70882C0.928207 2.13528 1.39305 1.67044 1.96659 1.67044H11.1212C11.6946 1.67044 12.1595 2.13528 12.1595 2.70882V11.8634Z" fill="#BBBCBC"/>
<path d="M9.91562 5.28431C9.75635 5.12506 9.49806 5.12506 9.33879 5.28433L5.73675 8.88636L3.84062 6.99024C3.68135 6.83096 3.42306 6.83096 3.26376 6.99024C3.10446 7.14951 3.10446 7.40779 3.26376 7.56709L5.44831 9.75163C5.52796 9.83128 5.63235 9.87109 5.73672 9.87109C5.84109 9.87109 5.94552 9.83125 6.02514 9.75163L9.91562 5.86116C10.0749 5.70189 10.0749 5.44361 9.91562 5.28431Z" fill="#BBBCBC"/>
<path d="M3.61956 1.63597C3.61956 2.01644 3.33636 2.32052 2.98699 2.32052H2.95264C2.60326 2.32052 2.32007 2.01644 2.32007 1.63597V0.688822C2.32007 0.308443 2.60326 0 2.95264 0H2.98699C3.33636 0 3.61956 0.308443 3.61956 0.688822V1.63597Z" fill="#BBBCBC"/>
<path d="M10.7668 1.63597C10.7668 2.01644 10.4835 2.32052 10.1344 2.32052H10.1001C9.75063 2.32052 9.46753 2.01644 9.46753 1.63597V0.688822C9.46734 0.308443 9.75063 0 10.0998 0H10.1341C10.4835 0 10.7668 0.308443 10.7668 0.688822V1.63597Z" fill="#BBBCBC"/>
<path d="M7.1469 1.63597C7.1469 2.01644 6.86371 2.32052 6.51442 2.32052H6.47999C6.13061 2.32052 5.84741 2.01644 5.84741 1.63597V0.688822C5.84741 0.308443 6.13061 0 6.47989 0H6.51433C6.86371 0 7.1469 0.308443 7.1469 0.688822V1.63597Z" fill="#BBBCBC"/>
</svg>
