<svg xmlns="http://www.w3.org/2000/svg" version="1.1"
    xmlnsXlink="http://www.w3.org/1999/xlink" width="512" height="512" x="0" y="0" viewBox="0 0 60 60" style="enable-background:new 0 0 512 512" xmlSpace="preserve" className="">
    <g>
        <g xmlns="http://www.w3.org/2000/svg" id="Page-1" fill="none" fill-rule="evenodd">
            <g id="023---Ships-Wheel" fill-rule="nonzero">
                <g fill="#cad9fc">
                    <path id="Shape" d="m33 4v5.22c-1.9892449-.29332678-4.0107551-.29332678-6 0v-5.22c0-1.65685425 1.3431458-3 3-3s3 1.34314575 3 3z" fill="#cad9fc" data-original="#cad9fc"></path>
                    <path id="Shape" d="m33 50.78v5.22c0 1.6568542-1.3431458 3-3 3s-3-1.3431458-3-3v-5.22c1.9892449.2933268 4.0107551.2933268 6 0z" fill="#cad9fc" data-original="#cad9fc"></path>
                    <path id="Shape" d="m9 30c-.00284366 1.0041318.07070186 2.0070252.22 3h-5.22c-1.65685425 0-3-1.3431458-3-3s1.34314575-3 3-3h5.22c-.14929814.9929748-.22284366 1.9958682-.22 3z" fill="#cad9fc" data-original="#cad9fc"></path>
                    <path id="Shape" d="m59 30c0 1.6568542-1.3431458 3-3 3h-5.22c.2933268-1.9892449.2933268-4.0107551 0-6h5.22c1.6568542 0 3 1.3431458 3 3z" fill="#cad9fc" data-original="#cad9fc"></path>
                    <path id="Shape" d="m17.42 13.18c-1.6108975 1.2009021-3.0390979 2.6291025-4.24 4.24l-3.69-3.68c-.75918938-.7591894-1.05568658-1.865732-.77780398-2.902804.2778826-1.03707196 1.08792802-1.84711738 2.12499998-2.12499998 1.037072-.2778826 2.1436146.0186146 2.902804.77780398z" fill="#cad9fc" data-original="#cad9fc"></path>
                    <path id="Shape" d="m51.39 48.38c.0021425 1.2164089-.7292613 2.314127-1.8526842 2.7805774-1.123423.4664505-2.4172437.2096151-3.2773158-.6505774l-3.68-3.69c1.6108975-1.2009021 3.0390979-2.6291025 4.24-4.24l3.69 3.68c.5635163.5615697.8801806 1.3244429.88 2.12z" fill="#cad9fc" data-original="#cad9fc"></path>
                    <path id="Shape" d="m50.51 13.74-3.69 3.68c-1.2009021-1.6108975-2.6291025-3.0390979-4.24-4.24l3.68-3.69c1.1736051-1.17360505 3.0763949-1.17360503 4.25.00000004 1.173605 1.17360506 1.1736051 3.07639486 0 4.24999996z" fill="#cad9fc" data-original="#cad9fc"></path>
                    <path id="Shape" d="m17.42 46.82-3.68 3.69c-1.1736051 1.1736051-3.0763949 1.173605-4.24999997 0-1.17360508-1.1736051-1.17360509-3.0763949-.00000003-4.25l3.69-3.68c1.2009021 1.6108975 2.6291025 3.0390979 4.24 4.24z" fill="#cad9fc" data-original="#cad9fc"></path>
                </g>
                <path id="Shape" d="m50.78 27c-1.3186295-9.2184629-8.5615371-16.4613705-17.78-17.78-1.9892449-.29332678-4.0107551-.29332678-6 0-9.2184629 1.3186295-16.4613705 8.5615371-17.78 17.78-.29332678 1.9892449-.29332678 4.0107551 0 6 1.3186295 9.2184629 8.5615371 16.4613705 17.78 17.78 1.9892449.2933268 4.0107551.2933268 6 0 9.2184629-1.3186295 16.4613705-8.5615371 17.78-17.78.2933268-1.9892449.2933268-4.0107551 0-6zm-4.91 5c-.3542398 2.8483286-1.4739435 5.5473674-3.24 7.81-.8214819 1.0514834-1.7685166 1.9985181-2.82 2.82-2.2626326 1.7660565-4.9616714 2.8857602-7.81 3.24-1.3277003.173329-2.6722997.173329-4 0-2.8483286-.3542398-5.5473674-1.4739435-7.81-3.24-1.0514834-.8214819-1.9985181-1.7685166-2.82-2.82-1.7660565-2.2626326-2.8857602-4.9616714-3.24-7.81-.173329-1.3277003-.173329-2.6722997 0-4 .3542398-2.8483286 1.4739435-5.5473674 3.24-7.81.8214819-1.0514834 1.7685166-1.9985181 2.82-2.82 2.2626326-1.7660565 4.9616714-2.8857602 7.81-3.24 1.3277003-.173329 2.6722997-.173329 4 0 2.8483286.3542398 5.5473674 1.4739435 7.81 3.24 1.0514834.8214819 1.9985181 1.7685166 2.82 2.82 1.7660565 2.2626326 2.8857602 4.9616714 3.24 7.81.173329 1.3277003.173329 2.6722997 0 4z" fill="#e8edfc" data-original="#e8edfc"></path>
                <path id="Shape" d="m50.78 27c-1.3186295-9.2184629-8.5615371-16.4613705-17.78-17.78-.9929748-.14929814-1.9958682-.22284366-3-.22-.5053333 0-1.0053333.01766667-1.5.053.5053333.036 1.0053333.09166667 1.5.167 9.2184629 1.3186295 16.4613705 8.5615371 17.78 17.78.2933268 1.9892449.2933268 4.0107551 0 6-1.3186295 9.2184629-8.5615371 16.4613705-17.78 17.78-.4946667.076-.9946667.1316667-1.5.167.4953333.0353333.9953333.053 1.5.053 1.0041318.0028437 2.0070252-.0707019 3-.22 9.2184629-1.3186295 16.4613705-8.5615371 17.78-17.78.2933268-1.9892449.2933268-4.0107551 0-6z" fill="#cad9fc" data-original="#cad9fc"></path>
                <path id="Shape" d="m32 14.13v10.22c-1.2924958-.4666907-2.7075042-.4666907-4 0v-10.22c1.3277003-.173329 2.6722997-.173329 4 0z" fill="#a4c2f7" data-original="#a4c2f7"></path>
                <path id="Shape" d="m42.63 20.19-7.22 7.23c-.584797-1.2442453-1.5857547-2.245203-2.83-2.83l7.23-7.22c1.0514834.8214819 1.9985181 1.7685166 2.82 2.82z" fill="#a4c2f7" data-original="#a4c2f7"></path>
                <path id="Shape" d="m46 30c.002502.6688566-.0409336 1.3370954-.13 2h-10.22c.4666907-1.2924958.4666907-2.7075042 0-4h10.22c.0890664.6629046.132502 1.3311434.13 2z" fill="#a4c2f7" data-original="#a4c2f7"></path>
                <path id="Shape" d="m42.63 39.81c-.8214819 1.0514834-1.7685166 1.9985181-2.82 2.82l-7.23-7.22c1.2442453-.584797 2.245203-1.5857547 2.83-2.83z" fill="#a4c2f7" data-original="#a4c2f7"></path>
                <path id="Shape" d="m32 35.65v10.22c-1.3277003.173329-2.6722997.173329-4 0v-10.22c1.2924958.4666907 2.7075042.4666907 4 0z" fill="#a4c2f7" data-original="#a4c2f7"></path>
                <path id="Shape" d="m27.42 35.41-7.23 7.22c-1.0514834-.8214819-1.9985181-1.7685166-2.82-2.82l7.22-7.23c.584797 1.2442453 1.5857547 2.245203 2.83 2.83z" fill="#a4c2f7" data-original="#a4c2f7"></path>
                <path id="Shape" d="m24 30c-.0018379.6820602.1166438 1.3590987.35 2h-10.22c-.173329-1.3277003-.173329-2.6722997 0-4h10.22c-.2333562.6409013-.3518379 1.3179398-.35 2z" fill="#a4c2f7" data-original="#a4c2f7"></path>
                <path id="Shape" d="m27.42 24.59c-1.2442453.584797-2.245203 1.5857547-2.83 2.83l-7.22-7.23c.8214819-1.0514834 1.7685166-1.9985181 2.82-2.82z" fill="#a4c2f7" data-original="#a4c2f7"></path>
                <path id="Shape" d="m36 30c.0018379.6820602-.1166438 1.3590987-.35 2-.0609683.2006709-.1413482.3949223-.24.58-.584797 1.2442453-1.5857547 2.245203-2.83 2.83-.1850777.0986518-.3793291.1790317-.58.24-1.2924958.4666907-2.7075042.4666907-4 0-.2006709-.0609683-.3949223-.1413482-.58-.24-1.2442453-.584797-2.245203-1.5857547-2.83-2.83-.0986518-.1850777-.1790317-.3793291-.24-.58-.4666907-1.2924958-.4666907-2.7075042 0-4 .0609683-.2006709.1413482-.3949223.24-.58.584797-1.2442453 1.5857547-2.245203 2.83-2.83.1850777-.0986518.3793291-.1790317.58-.24 1.2924958-.4666907 2.7075042-.4666907 4 0 .2006709.0609683.3949223.1413482.58.24 1.2442453.584797 2.245203 1.5857547 2.83 2.83.0986518.1850777.1790317.3793291.24.58.2333562.6409013.3518379 1.3179398.35 2z" fill="#e8edfc" data-original="#e8edfc"></path>
                <path id="Shape" d="m35.65 28c-.0609683-.2006709-.1413482-.3949223-.24-.58-.584797-1.2442453-1.5857547-2.245203-2.83-2.83-.1850777-.0986518-.3793291-.1790317-.58-.24-1.1227573-.4155987-2.348753-.4625368-3.5-.134.167.044.338.075.5.134.2006709.0609683.3949223.1413482.58.24 1.2442453.584797 2.245203 1.5857547 2.83 2.83.0986518.1850777.1790317.3793291.24.58.4666907 1.2924958.4666907 2.7075042 0 4-.0609683.2006709-.1413482.3949223-.24.58-.584797 1.2442453-1.5857547 2.245203-2.83 2.83-.1850777.0986518-.3793291.1790317-.58.24-.162.059-.333.09-.5.134 1.151247.3285368 2.3772427.2815987 3.5-.134.2006709-.0609683.3949223-.1413482.58-.24 1.2442453-.584797 2.245203-1.5857547 2.83-2.83.0986518-.1850777.1790317-.3793291.24-.58.4666907-1.2924958.4666907-2.7075042 0-4z" fill="#cad9fc" data-original="#cad9fc"></path>
                <path id="Shape" d="m11.61 48.38c-.0001806-.7955571.3164837-1.5584303.88-2.12l3.69-3.68c-2.1080604-2.8075492-3.4704466-6.1034229-3.96-9.58h-3c.48955342 3.4765771 1.8519396 6.7724508 3.96 9.58l-3.69 3.68c-1.07690174 1.0634625-1.19300372 2.7625421-.27077416 3.9626099.92222956 1.2000677 2.59393776 1.5252486 3.89877416.7583901-.9402239-.5262657-1.5184347-1.5235643-1.508-2.601z" fill="#ffffff" data-original="#ffffff"></path>
                <path id="Shape" d="m30 56v-5.22c-3.4765771-.4895534-6.7724508-1.8519396-9.58-3.96l-1.2 1.2c2.3817944 1.432869 5.0277024 2.3715202 7.78 2.76v5.22c-.0081567 1.074847.5633474 2.0707371 1.495479 2.6059877.9321316.5352507 2.080323.526848 3.004521-.0219877-.9262647-.5309643-1.4982739-1.5163454-1.5-2.584z" fill="#ffffff" data-original="#ffffff"></path>
                <path id="Shape" d="m4.88 27.88c.56163237-.5634227 1.32446489-.8800702 2.12-.88h-3c-1.65685425 0-3 1.3431458-3 3s1.34314575 3 3 3h3c-1.21256662-.0010665-2.30526303-.7319802-2.7691479-1.8523059-.46388488-1.1203258-.20773331-2.4097468.6491479-3.2676941z" fill="#ffffff" data-original="#ffffff"></path>
                <path id="Shape" d="m27 4v5.22c-2.7512613.38887012-5.3961123 1.3275083-7.777 2.76l1.2 1.2c2.8066859-2.1075952 6.1014709-3.46995803 9.577-3.96v-5.22c-.0118533-1.07309579.5635038-2.06692941 1.5-2.591-.9271091-.53527068-2.0691992-.53594644-2.9969411-.00177326s-1.5005355 1.52224083-1.5030589 2.59277326z" fill="#ffffff" data-original="#ffffff"></path>
                <path id="Shape" d="m12.22 27c.4895534-3.4765771 1.8519396-6.7724508 3.96-9.58l-3.69-3.68c-.6551833-.6612851-.9680338-1.5882133-.8475909-2.5112825.1204428-.9230692.6606622-1.73868802 1.4635909-2.2097175-1.3038555-.74695332-2.9592026-.41404078-3.87292015.77889626-.9137175 1.19293704-.80390578 2.87785434.25692015 3.94210374l3.69 3.68c-2.1080604 2.8075492-3.47044658 6.1034229-3.96 9.58z" fill="#ffffff" data-original="#ffffff"></path>
                <path id="Shape" d="m43.387 19.558c-.02-.024-.028-.053-.051-.076l-.012-.008c-.8220446-1.0383555-1.7616445-1.9779554-2.8-2.8l-.008-.012c-.023-.023-.053-.031-.077-.051-6.1269905-4.8167807-14.7540095-4.8167807-20.881 0-.0269785.0158187-.0530218.0331809-.078.052l-.008.012c-1.0383555.8220446-1.9779554 1.7616445-2.8 2.8l-.012.008c-.023.023-.031.052-.051.076-4.8158148 6.1284443-4.8158148 14.7555557 0 20.884.02.024.028.053.051.076l.012.008c.8220446 1.0383555 1.7616445 1.9779554 2.8 2.8l.008.012c.023.023.053.031.077.051 6.1271824 4.8173048 14.7548176 4.8173048 20.882 0 .024-.02.054-.028.077-.051l.008-.012c1.0383555-.8220446 1.9779554-1.7616445 2.8-2.8l.012-.008c.023-.023.031-.052.051-.076 4.8158148-6.1284443 4.8158148-14.7555557 0-20.884zm-.887 18.71-5.257-5.268h7.457c-.3871219 1.8813274-1.13415 3.6701201-2.2 5.268zm-2.638 3-5.678-5.668c.5371788-.4019804 1.0140196-.8788212 1.416-1.416l5.672 5.681c-.4374758.4991866-.9075025.9688792-1.407 1.406zm-21.133-1.403 5.671-5.681c.4019804.5371788.8788212 1.0140196 1.416 1.416l-5.681 5.672c-.4991866-.4374758-.9688792-.9075025-1.406-1.407zm-3.429-6.865h7.455l-5.255 5.268c-1.06585-1.5978799-1.8128781-3.3866726-2.2-5.268zm2.2-11.268 5.257 5.268h-7.457c.3871219-1.8813274 1.13415-3.6701201 2.2-5.268zm2.638-3 5.678 5.668c-.5371788.4019804-1.0140196.8788212-1.416 1.416l-5.672-5.681c.4374758-.4991866.9075025-.9688792 1.407-1.406zm1.6-1.232c1.5960709-1.0651421 3.3827616-1.8121431 5.262-2.2v7.455zm1.342 11.5c-.1066667.6624-.1066667 1.3376 0 2h-8.029c-.022-.332-.051-.662-.051-1s.029-.668.051-1zm3.92 8.243v7.457c-1.8813274-.3871219-3.6701201-1.13415-5.268-2.2zm-2-7.243c0-2.7614237 2.2385763-5 5-5s5 2.2385763 5 5-2.2385763 5-5 5c-2.7600532-.0033061-4.9966939-2.2399468-5-5zm16.271-9.865-5.671 5.681c-.4019804-.5371788-.8788212-1.0140196-1.416-1.416l5.681-5.672c.4991866.4374758.9688792.9075025 1.406 1.407zm3.429 6.865h-7.457l5.26-5.268c1.0647922 1.5981091 1.8107959 3.3868883 2.197 5.268zm-11.7-4.243v-7.457c1.8813274.3871219 3.6701201 1.13415 5.268 2.2zm5.268 19.743c-1.5978799 1.06585-3.3866726 1.8128781-5.268 2.2v-7.457zm-1.348-11.5c.1066667-.6624.1066667-1.3376 0-2h8.029c.022.332.051.662.051 1s-.029.668-.051 1zm-5.92-15.949v8.029c-.6624-.1066667-1.3376-.1066667-2 0v-8.029c.332-.022.662-.051 1-.051s.668.029 1 .051zm-2 29.9v-8.031c.6624.1066667 1.3376.1066667 2 0v8.029c-.332.022-.662.051-1 .051s-.668-.029-1-.051z" fill="#428dff" data-original="#428dff" className=""></path>
                <path id="Shape" d="m56 26h-4.371c-.5602814-3.0366243-1.7571981-5.9201984-3.512-8.461l3.1-3.1c1.5484627-1.5693348 1.5484627-4.0916652 0-5.661-.7511268-.75141196-1.7700446-1.17357478-2.8325-1.17357478s-2.0813732.42216282-2.8325 1.17357478l-3.091 3.1c-2.541221-1.7530318-5.424768-2.94823324-8.461-3.507v-4.371c0-2.209139-1.790861-4-4-4s-4 1.790861-4 4v4.371c-3.0366243.56028141-5.9201984 1.7571981-8.461 3.512l-3.092-3.1c-.7512078-.75202409-1.7705543-1.17457552-2.8335-1.17457552s-2.08229216.42255143-2.8335 1.17457552c-1.54912065 1.5694543-1.54912065 4.0925457 0 5.662l3.1 3.091c-1.7541283 2.5419459-2.95003205 5.4265653-3.509 8.464h-4.371c-2.209139 0-4 1.790861-4 4s1.790861 4 4 4h4.371c.56028141 3.0366243 1.7571981 5.9201984 3.512 8.461l-3.1 3.092c-1.14330281 1.1444567-1.48471346 2.8648893-.86505904 4.3591954.61965442 1.4943062 2.07836863 2.4682683 3.69605904 2.4678046 1.0614301.0020629 2.0804461-.4164744 2.834-1.164l3.091-3.1c2.5407177 1.7551559 5.4242972 2.9524157 8.461 3.513v4.371c.0000001 2.209139 1.790861 3.9999999 4 3.9999999s3.9999999-1.7908609 4-3.9999999v-4.371c3.0366243-.5602814 5.9201984-1.7571981 8.461-3.512l3.095 3.1c1.0124907 1.0110616 2.4874656 1.4051637 3.869316 1.0338519s2.4606403-1.4516265 2.83-2.834-.0268253-2.8567903-1.039316-3.8678519l-3.1-3.091c1.7547676-2.5398252 2.9520111-5.4223431 3.513-8.458h4.371c2.209139 0 4-1.790861 4-4s-1.790861-4-4-4zm-26 24c-11.045695 0-20-8.954305-20-20s8.954305-20 20-20 20 8.954305 20 20c-.0126747 11.0404407-8.9595593 19.9873253-20 20zm16.967-39.8c.7936606-.75441445 2.0393394-.75441445 2.833 0 .3780095.3754551.5905891.886217.5905891 1.419s-.2125796 1.0435449-.5905891 1.419l-2.9 2.892c-.8568155-1.0260558-1.8039442-1.9731845-2.83-2.83zm-18.967-6.2c0-1.1045695.8954305-2 2-2s2 .8954305 2 2v4.1c-.659-.06-1.325-.1-2-.1s-1.341.035-2 .1zm-17.8 9.036c-.37831732-.3754942-.59109271-.886471-.59109271-1.4195s.21277539-1.0440058.59109271-1.4195c.7931841-.75657254 2.0408159-.75657254 2.834 0l2.9 2.906c-1.0273111.8556822-1.9757798 1.8018082-2.834 2.827zm-6.2 18.964c-1.1045695 0-2-.8954305-2-2s.8954305-2 2-2h4.1c-.06.659-.1 1.325-.1 2s.035 1.341.1 2zm9.036 17.8c-.5058881.5073172-1.2439984.7062095-1.936292.5217561-.6922936-.1844533-1.23359455-.7242295-1.42000003-1.416-.18640549-.6917705.01040392-1.430439.51629203-1.9377561l2.906-2.9c.8560904 1.0266613 1.8025497 1.9744593 2.828 2.832zm18.964 6.2c0 1.1045695-.8954305 2-2 2s-2-.8954305-2-2v-4.095c.659.06 1.325.095 2 .095s1.341-.035 2-.095zm17.8-9.033c.7221637.7915616.6943321 2.0110394-.0631917 2.7688308-.7575239.7577913-1.9769918.7860534-2.7688083.0641692l-2.898-2.9c1.0260558-.8568155 1.9731845-1.8039442 2.83-2.83zm6.2-14.967h-4.095c.06-.659.095-1.325.095-2s-.035-1.341-.095-2h4.095c1.1045695 0 2 .8954305 2 2s-.8954305 2-2 2z" fill="#428dff" data-original="#428dff" className=""></path>
                <path id="Shape" d="m31 28c0-.5522847-.4477153-1-1-1-1.6568542 0-3 1.3431458-3 3 0 .5522847.4477153 1 1 1s1-.4477153 1-1 .4477153-1 1-1 1-.4477153 1-1z" fill="#428dff" data-original="#428dff" className=""></path>
            </g>
        </g>
    </g>
</svg>