<svg width="15" height="16" viewBox="0 0 15 16" fill="none"
    >
    <path d="M14.4754 6.15645C14.4754 5.96937 14.4116 5.79573 14.3052 5.65621H14.3174L14.2321 5.57085C14.0815 5.42026 13.8739 5.32605 13.645 5.32605H11.3477V1.81089C11.3477 1.34828 10.9832 0.95 10.5173 0.95H4.90811C4.44217 0.95 4.07771 1.34828 4.07771 1.81089V3.04581H1.7804C1.32296 3.04581 0.95 3.41877 0.95 3.87621V14.2196C0.95 14.4484 1.04416 14.6561 1.19328 14.8052L1.20792 14.8198H1.20981C1.35901 14.9618 1.56042 15.05 1.7804 15.05H10.9639H13.645C13.8649 15.05 14.0664 14.9618 14.2156 14.8198H14.2174L14.2321 14.8052C14.3812 14.6561 14.4754 14.4484 14.4754 14.2196V6.15645ZM13.6914 14.2611C13.6906 14.2612 13.6897 14.2614 13.6888 14.2617C13.6755 14.2645 13.6541 14.2674 13.6241 14.2702C13.5647 14.2757 13.4786 14.2799 13.3734 14.2831C13.1632 14.2894 12.8804 14.2914 12.5904 14.2913C12.3005 14.2912 12.004 14.289 11.7667 14.2868C11.6734 14.2859 11.5892 14.2851 11.5181 14.2843C11.4467 14.2836 11.3885 14.283 11.3477 14.2827V6.09338C11.4037 6.09289 11.4868 6.0918 11.5887 6.09045C11.6472 6.08968 11.7119 6.08883 11.7812 6.08796C12.0154 6.08503 12.3029 6.08194 12.5842 6.08127C12.8657 6.08061 13.1405 6.08237 13.3495 6.08913C13.4541 6.09251 13.5413 6.09712 13.6044 6.1032C13.6361 6.10625 13.6605 6.10957 13.6775 6.11301C13.6848 6.11449 13.6899 6.11583 13.6931 6.11687L13.6979 6.12176C13.704 6.13109 13.7078 6.14268 13.7078 6.15645V14.2196C13.7078 14.2363 13.7013 14.2512 13.6914 14.2611ZM1.74633 14.2634C1.74079 14.2624 1.73657 14.2614 1.73349 14.2606C1.72388 14.2507 1.71761 14.2361 1.71761 14.2196V3.87621C1.71761 3.86114 1.72292 3.84668 1.73247 3.8352C1.73576 3.83419 1.74072 3.83292 1.74773 3.83153C1.76476 3.82814 1.78919 3.82488 1.82088 3.82188C1.88398 3.8159 1.97127 3.81136 2.07589 3.80801C2.28488 3.80132 2.55969 3.79951 2.84116 3.80008C3.12251 3.80065 3.41001 3.8036 3.64421 3.80641C3.71476 3.80726 3.78055 3.80809 3.83989 3.80885C3.9403 3.81012 4.02227 3.81116 4.07771 3.81163V14.2826C4.02362 14.2831 3.94385 14.284 3.8461 14.2852C3.78548 14.2859 3.71795 14.2867 3.64533 14.2875C3.41087 14.2901 3.12264 14.2928 2.84061 14.2933C2.55846 14.2937 2.28299 14.292 2.07388 14.2856C1.9692 14.2825 1.88195 14.2782 1.81907 14.2725C1.78748 14.2697 1.76319 14.2666 1.74633 14.2634ZM1.72843 14.259C1.72783 14.2588 1.72757 14.2587 1.72758 14.2587L1.72843 14.259ZM6.42196 12.4637V14.2824H4.84532V1.82806L4.93254 1.71609H10.4928L10.58 1.82806V14.2824H9.0034V12.4637C9.0034 12.2518 8.83179 12.0799 8.62112 12.0799H6.80577C6.59372 12.0799 6.42196 12.2516 6.42196 12.4637ZM8.23732 14.2824H7.18805V12.846H8.23732V14.2824Z" fill="#BBBCBC" stroke="#4E4E4E" stroke-width="0.1"/>
    <path d="M9.43029 4.17791C9.43029 4.11719 9.43054 4.06016 9.43078 4.00667C9.4315 3.84313 9.43208 3.71254 9.42488 3.61011C9.41542 3.47545 9.39208 3.37364 9.32419 3.30575C9.25631 3.23787 9.1545 3.21452 9.01984 3.20506C8.91741 3.19787 8.78682 3.19845 8.62328 3.19917C8.56978 3.1994 8.51276 3.19965 8.45204 3.19965C8.23999 3.19965 8.06823 3.37141 8.06823 3.58346C8.06823 3.64257 8.06613 3.70349 8.06397 3.76619C8.06253 3.80801 8.06106 3.85062 8.06017 3.89402C8.05799 4.00013 8.05945 4.10761 8.07518 4.2037C8.09084 4.29938 8.12151 4.38946 8.18229 4.45593C8.24477 4.52426 8.33355 4.56171 8.45204 4.56171C8.51115 4.56171 8.57207 4.56381 8.63477 4.56597C8.67659 4.56741 8.7192 4.56888 8.7626 4.56977C8.86871 4.57195 8.97619 4.5705 9.07228 4.55477C9.16796 4.5391 9.25804 4.50843 9.32451 4.44766C9.39284 4.38518 9.43029 4.2964 9.43029 4.17791Z" fill="#BBBCBC" stroke="#4E4E4E" stroke-width="0.1"/>
    <path d="M7.20751 4.17791C7.20751 4.11719 7.20776 4.06016 7.208 4.00667C7.20872 3.84313 7.2093 3.71254 7.2021 3.61011C7.19265 3.47545 7.1693 3.37364 7.10142 3.30575C7.03353 3.23787 6.93172 3.21452 6.79706 3.20506C6.69463 3.19787 6.56404 3.19845 6.4005 3.19917C6.347 3.1994 6.28998 3.19965 6.22926 3.19965C6.01721 3.19965 5.84546 3.37141 5.84546 3.58346C5.84546 3.64257 5.84336 3.70349 5.84119 3.76619C5.83975 3.80801 5.83828 3.85062 5.83739 3.89402C5.83521 4.00013 5.83667 4.10761 5.8524 4.2037C5.86806 4.29938 5.89874 4.38946 5.95951 4.45593C6.02199 4.52426 6.11077 4.56171 6.22926 4.56171C6.28837 4.56171 6.34929 4.56381 6.41199 4.56597C6.45381 4.56741 6.49642 4.56888 6.53982 4.56977C6.64593 4.57195 6.75342 4.5705 6.84951 4.55477C6.94518 4.5391 7.03526 4.50843 7.10173 4.44766C7.17006 4.38518 7.20751 4.2964 7.20751 4.17791Z" fill="#BBBCBC" stroke="#4E4E4E" stroke-width="0.1"/>
    <path d="M9.43029 6.40063C9.43029 6.33991 9.43054 6.28289 9.43078 6.22939C9.4315 6.06585 9.43208 5.93526 9.42488 5.83283C9.41542 5.69817 9.39208 5.59636 9.32419 5.52848C9.25631 5.46059 9.1545 5.43725 9.01984 5.42779C8.91741 5.4206 8.78682 5.42117 8.62328 5.42189C8.56978 5.42213 8.51276 5.42238 8.45204 5.42238C8.23999 5.42238 8.06823 5.59414 8.06823 5.80618C8.06823 5.8653 8.06613 5.92622 8.06397 5.98891C8.06253 6.03073 8.06106 6.07335 8.06017 6.11674C8.05799 6.22285 8.05945 6.33034 8.07518 6.42643C8.09084 6.5221 8.12151 6.61219 8.18229 6.67865C8.24477 6.74698 8.33355 6.78444 8.45204 6.78444C8.51115 6.78444 8.57207 6.78654 8.63477 6.7887C8.67659 6.79014 8.7192 6.79161 8.7626 6.7925C8.86871 6.79468 8.97619 6.79322 9.07228 6.77749C9.16796 6.76183 9.25804 6.73116 9.32451 6.67038C9.39284 6.6079 9.43029 6.51912 9.43029 6.40063Z" fill="#BBBCBC" stroke="#4E4E4E" stroke-width="0.1"/>
    <path d="M7.20751 6.40063C7.20751 6.33991 7.20776 6.28289 7.208 6.22939C7.20872 6.06585 7.2093 5.93526 7.2021 5.83283C7.19265 5.69817 7.1693 5.59636 7.10142 5.52848C7.03353 5.46059 6.93172 5.43725 6.79706 5.42779C6.69463 5.4206 6.56404 5.42117 6.4005 5.42189C6.347 5.42213 6.28998 5.42238 6.22926 5.42238C6.01721 5.42238 5.84546 5.59414 5.84546 5.80618C5.84546 5.8653 5.84336 5.92622 5.84119 5.98891C5.83975 6.03073 5.83828 6.07335 5.83739 6.11674C5.83521 6.22285 5.83667 6.33034 5.8524 6.42643C5.86806 6.5221 5.89874 6.61219 5.95951 6.67865C6.02199 6.74698 6.11077 6.78444 6.22926 6.78444C6.28837 6.78444 6.34929 6.78654 6.41199 6.7887C6.45381 6.79014 6.49642 6.79161 6.53982 6.7925C6.64593 6.79468 6.75342 6.79322 6.84951 6.77749C6.94518 6.76183 7.03526 6.73116 7.10173 6.67038C7.17006 6.6079 7.20751 6.51912 7.20751 6.40063Z" fill="#BBBCBC" stroke="#4E4E4E" stroke-width="0.1"/>
</svg>
