<svg width="14" height="14" viewBox="0 0 14 14" fill="none" xmlns="http://www.w3.org/2000/svg">
<path d="M11.0645 8.67251C10.7779 8.37407 10.4322 8.21451 10.0658 8.21451C9.70232 8.21451 9.35366 8.37112 9.05522 8.66955L8.12151 9.60031C8.04468 9.55895 7.96786 9.52053 7.89399 9.48212C7.78762 9.42894 7.68715 9.3787 7.60146 9.32552C6.72685 8.77001 5.932 8.04609 5.16967 7.10942C4.80032 6.64256 4.55211 6.24957 4.37187 5.85067C4.61417 5.62906 4.83873 5.39859 5.05739 5.17698C5.14012 5.09424 5.22285 5.00855 5.30559 4.92582C5.9261 4.30531 5.9261 3.50161 5.30559 2.8811L4.49893 2.07444C4.40733 1.98284 4.31278 1.88829 4.22413 1.79373C4.04684 1.61053 3.86069 1.42143 3.66863 1.24414C3.38202 0.960479 3.03926 0.809784 2.67877 0.809784C2.31829 0.809784 1.96962 0.960479 1.67414 1.24414C1.67119 1.24709 1.67119 1.24709 1.66823 1.25005L0.663603 2.26355C0.285389 2.64176 0.0696892 3.10271 0.0224125 3.63753C-0.0485027 4.50033 0.20561 5.30403 0.400626 5.82999C0.879303 7.12124 1.59436 8.31793 2.66105 9.60031C3.95525 11.1457 5.51242 12.366 7.29121 13.2259C7.97081 13.5479 8.87794 13.9291 9.89143 13.9941C9.95348 13.9971 10.0185 14 10.0776 14C10.7601 14 11.3334 13.7548 11.7825 13.2672C11.7855 13.2613 11.7914 13.2584 11.7943 13.2524C11.948 13.0663 12.1253 12.8979 12.3114 12.7176C12.4385 12.5965 12.5685 12.4694 12.6955 12.3365C12.9881 12.0321 13.1417 11.6775 13.1417 11.3141C13.1417 10.9477 12.9851 10.5961 12.6867 10.3006L11.0645 8.67251ZM12.1223 11.7839C12.1193 11.7839 12.1193 11.7869 12.1223 11.7839C12.0071 11.908 11.8889 12.0203 11.7618 12.1444C11.5698 12.3276 11.3747 12.5197 11.1915 12.7354C10.8931 13.0545 10.5415 13.2052 10.0805 13.2052C10.0362 13.2052 9.98894 13.2052 9.94462 13.2022C9.06704 13.1461 8.25152 12.8033 7.63988 12.5108C5.96746 11.7012 4.49893 10.5518 3.2786 9.09504C2.27101 7.88062 1.59732 6.7578 1.15114 5.55224C0.876349 4.81649 0.775885 4.24326 0.820207 3.70253C0.849755 3.35682 0.982721 3.07021 1.22797 2.82496L2.23555 1.81737C2.38034 1.68145 2.53399 1.60758 2.68468 1.60758C2.87084 1.60758 3.02153 1.71986 3.11608 1.81442C3.11904 1.81737 3.12199 1.82033 3.12495 1.82328C3.30519 1.9917 3.47657 2.16604 3.65681 2.35219C3.74841 2.44674 3.84296 2.5413 3.93752 2.63881L4.74418 3.44547C5.05738 3.75867 5.05738 4.04824 4.74418 4.36145C4.65849 4.44714 4.57575 4.53283 4.49006 4.61557C4.24186 4.86968 4.00548 5.10606 3.74841 5.33654C3.7425 5.34245 3.73659 5.3454 3.73364 5.35131C3.47952 5.60542 3.5268 5.85363 3.57999 6.02205C3.58294 6.03092 3.5859 6.03978 3.58885 6.04864C3.79864 6.55687 4.09412 7.03555 4.54325 7.60582L4.54621 7.60878C5.36173 8.61341 6.22158 9.39643 7.17006 9.99626C7.29121 10.0731 7.41531 10.1351 7.5335 10.1942C7.63988 10.2474 7.74034 10.2976 7.82603 10.3508C7.83785 10.3567 7.84967 10.3656 7.86149 10.3715C7.96195 10.4217 8.0565 10.4454 8.15401 10.4454C8.39926 10.4454 8.55291 10.2917 8.60314 10.2415L9.61368 9.23096C9.71414 9.1305 9.8737 9.00935 10.0599 9.00935C10.2431 9.00935 10.3937 9.12459 10.4853 9.22505C10.4883 9.22801 10.4883 9.22801 10.4913 9.23096L12.1193 10.8591C12.4237 11.1604 12.4237 11.4707 12.1223 11.7839Z" fill="#BBBCBC"/>
<path d="M7.56601 3.33062C8.34017 3.46063 9.04342 3.82703 9.60483 4.38844C10.1662 4.94985 10.5297 5.65309 10.6626 6.42725C10.6951 6.62226 10.8636 6.75818 11.0556 6.75818C11.0793 6.75818 11.1 6.75523 11.1236 6.75228C11.3423 6.71682 11.487 6.50998 11.4516 6.29133C11.292 5.35466 10.8488 4.50072 10.1721 3.82407C9.4955 3.14743 8.64156 2.70421 7.70489 2.54465C7.48624 2.50919 7.28235 2.65397 7.24394 2.86967C7.20553 3.08537 7.34736 3.29517 7.56601 3.33062Z" fill="#BBBCBC"/>
<path d="M13.9838 6.17588C13.7208 4.63347 12.9939 3.22995 11.877 2.11303C10.7601 0.996121 9.35656 0.269241 7.81416 0.00626451C7.59846 -0.0321478 7.39458 0.115592 7.35617 0.331292C7.32071 0.549947 7.4655 0.753828 7.68415 0.79224C9.06108 1.02567 10.3169 1.67868 11.3156 2.67445C12.3143 3.67317 12.9644 4.92895 13.1978 6.30589C13.2303 6.50091 13.3987 6.63683 13.5908 6.63683C13.6144 6.63683 13.6351 6.63387 13.6587 6.63092C13.8744 6.59841 14.0222 6.39158 13.9838 6.17588Z" fill="#BBBCBC"/>
</svg>
