<svg width="16" height="16" viewBox="0 0 16 16" fill="none" xmlns="http://www.w3.org/2000/svg">
<g id="Group 2">
<path id="Vector" d="M8 0.316895C7.65168 0.316895 7.31205 0.345413 6.97747 0.396925C6.94621 0.400491 6.91661 0.413473 6.89224 0.434302C6.86786 0.455131 6.84976 0.482917 6.84012 0.514303L6.39753 2.10958C6.04554 2.22142 5.71358 2.37328 5.39535 2.55241L4.00145 1.75211C3.97459 1.73663 3.9441 1.72942 3.9135 1.73131C3.88291 1.7332 3.85344 1.7441 3.82849 1.76278C3.5572 1.97446 3.29647 2.2087 3.05015 2.46705C2.80382 2.72539 2.58047 2.99883 2.37863 3.28336C2.36083 3.30952 2.35043 3.34043 2.34863 3.37252C2.34683 3.40461 2.3537 3.43659 2.36846 3.46476L3.13154 4.92665C2.96074 5.26041 2.81594 5.60856 2.7093 5.97772L1.18823 6.44189C1.1583 6.45201 1.13181 6.47099 1.11195 6.49656C1.09209 6.52212 1.07971 6.55317 1.07631 6.58595C1.02719 6.93685 1 7.29305 1 7.65836C1 8.02367 1.02719 8.37987 1.07631 8.73077C1.07971 8.76355 1.09209 8.7946 1.11195 8.82016C1.13181 8.84572 1.1583 8.86471 1.18823 8.87482L2.7093 9.339C2.81594 9.70816 2.96074 10.0563 3.13154 10.3901L2.36846 11.852C2.3537 11.8801 2.34683 11.9121 2.34863 11.9442C2.35043 11.9763 2.36083 12.0072 2.37863 12.0334C2.58047 12.3179 2.80382 12.5913 3.05015 12.8497C3.29647 13.108 3.5572 13.3423 3.82849 13.5539C3.85344 13.5726 3.88291 13.5835 3.9135 13.5854C3.9441 13.5873 3.97459 13.5801 4.00145 13.5646L5.39535 12.7643C5.71358 12.9434 6.04554 13.0953 6.39753 13.2071L6.84012 14.8024C6.84976 14.8338 6.86786 14.8616 6.89224 14.8824C6.91661 14.9032 6.94621 14.9162 6.97747 14.9198C7.31205 14.9713 7.65168 14.9998 8 14.9998C8.34832 14.9998 8.68795 14.9713 9.02253 14.9198C9.05379 14.9162 9.08339 14.9032 9.10776 14.8824C9.13214 14.8616 9.15024 14.8338 9.15988 14.8024L9.60247 13.2071C9.95446 13.0953 10.2864 12.9434 10.6047 12.7643L11.9985 13.5646C12.0254 13.5801 12.0559 13.5873 12.0865 13.5854C12.1171 13.5835 12.1466 13.5726 12.1715 13.5539C12.4428 13.3423 12.7035 13.108 12.9499 12.8497C13.1962 12.5913 13.4195 12.3179 13.6214 12.0334C13.6392 12.0072 13.6496 11.9763 13.6514 11.9442C13.6532 11.9121 13.6463 11.8801 13.6315 11.852L12.8685 10.3901C13.0393 10.0563 13.1841 9.70816 13.2907 9.339L14.8118 8.87482C14.8417 8.86471 14.8682 8.84572 14.8881 8.82016C14.9079 8.7946 14.9203 8.76355 14.9237 8.73077C14.9728 8.37987 15 8.02367 15 7.65836C15 7.29305 14.9728 6.93685 14.9237 6.58595C14.9203 6.55317 14.9079 6.52212 14.8881 6.49656C14.8682 6.47099 14.8417 6.45201 14.8118 6.44189L13.2907 5.97772C13.1841 5.60856 13.0393 5.26041 12.8685 4.92665L13.6315 3.46476C13.6463 3.43659 13.6532 3.40461 13.6514 3.37252C13.6496 3.34043 13.6392 3.30952 13.6214 3.28336C13.4195 2.99883 13.1962 2.72539 12.9499 2.46705C12.7035 2.2087 12.4428 1.97446 12.1715 1.76278C12.1466 1.7441 12.1171 1.7332 12.0865 1.73131C12.0559 1.72942 12.0254 1.73663 11.9985 1.75211L10.6047 2.55241C10.2864 2.37328 9.95446 2.22142 9.60247 2.10958L9.15988 0.514303C9.15024 0.482917 9.13214 0.455131 9.10776 0.434302C9.08339 0.413473 9.05379 0.400491 9.02253 0.396925C8.68795 0.345413 8.34832 0.316895 8 0.316895ZM8 0.658358C8.29766 0.658358 8.58766 0.688037 8.875 0.727718L9.30741 2.28564C9.31574 2.31259 9.33033 2.33694 9.34987 2.3565C9.36941 2.37606 9.39328 2.39021 9.41933 2.39769C9.81278 2.51444 10.1885 2.68316 10.5385 2.88854C10.5627 2.90255 10.5898 2.9099 10.6174 2.9099C10.645 2.9099 10.6721 2.90255 10.6962 2.88854L12.0545 2.10424C12.2848 2.28949 12.5102 2.48616 12.7209 2.70714C12.9316 2.92812 13.1192 3.16454 13.2958 3.40607L12.548 4.83061C12.5346 4.85593 12.5276 4.88438 12.5276 4.91331C12.5276 4.94224 12.5346 4.9707 12.548 4.99601C12.7438 5.36313 12.9047 5.75715 13.016 6.16979C13.0231 6.19711 13.0366 6.22215 13.0553 6.24264C13.0739 6.26313 13.0971 6.27843 13.1228 6.28717L14.6083 6.74068C14.6461 7.04203 14.6744 7.34618 14.6744 7.65836C14.6744 7.97054 14.6461 8.27469 14.6083 8.57604L13.1228 9.02955C13.0971 9.03828 13.0739 9.05359 13.0553 9.07408C13.0366 9.09457 13.0231 9.1196 13.016 9.14692C12.9047 9.55956 12.7438 9.95359 12.548 10.3207C12.5346 10.346 12.5276 10.3745 12.5276 10.4034C12.5276 10.4323 12.5346 10.4608 12.548 10.4861L13.2958 11.9106C13.1192 12.1522 12.9316 12.3886 12.7209 12.6096C12.5102 12.8306 12.2848 13.0272 12.0545 13.2125L10.6962 12.4282C10.6721 12.4142 10.645 12.4068 10.6174 12.4068C10.5898 12.4068 10.5627 12.4142 10.5385 12.4282C10.1885 12.6336 9.81278 12.8023 9.41933 12.919C9.39328 12.9265 9.36941 12.9407 9.34987 12.9602C9.33033 12.9798 9.31574 13.0041 9.30741 13.0311L8.875 14.589C8.58766 14.6287 8.29766 14.6584 8 14.6584C7.70234 14.6584 7.41234 14.6287 7.125 14.589L6.69259 13.0311C6.68426 13.0041 6.66967 12.9798 6.65013 12.9602C6.63059 12.9407 6.60672 12.9265 6.58067 12.919C6.18722 12.8023 5.81153 12.6336 5.46148 12.4282C5.43735 12.4142 5.41022 12.4068 5.38263 12.4068C5.35505 12.4068 5.32791 12.4142 5.30378 12.4282L3.94549 13.2125C3.7152 13.0272 3.48977 12.8306 3.27907 12.6096C3.06837 12.3886 2.88084 12.1522 2.70422 11.9106L3.45203 10.4861C3.46539 10.4608 3.4724 10.4323 3.4724 10.4034C3.4724 10.3745 3.46539 10.346 3.45203 10.3207C3.25621 9.95359 3.09533 9.55956 2.98401 9.14692C2.97689 9.1196 2.96339 9.09457 2.94474 9.07408C2.92609 9.05359 2.90287 9.03828 2.87718 9.02955L1.39172 8.57604C1.35388 8.27469 1.32558 7.97054 1.32558 7.65836C1.32558 7.34618 1.35388 7.04203 1.39172 6.74068L2.87718 6.28717C2.90287 6.27843 2.92609 6.26313 2.94474 6.24264C2.96339 6.22215 2.97689 6.19711 2.98401 6.16979C3.09533 5.75715 3.25621 5.36313 3.45203 4.99601C3.46539 4.9707 3.4724 4.94224 3.4724 4.91331C3.4724 4.88438 3.46539 4.85593 3.45203 4.83061L2.70422 3.40607C2.88084 3.16454 3.06837 2.92812 3.27907 2.70714C3.48977 2.48616 3.7152 2.28949 3.94549 2.10424L5.30378 2.88854C5.32791 2.90255 5.35505 2.9099 5.38263 2.9099C5.41022 2.9099 5.43735 2.90255 5.46148 2.88854C5.81153 2.68316 6.18722 2.51444 6.58067 2.39769C6.60672 2.39021 6.63059 2.37606 6.65013 2.3565C6.66967 2.33694 6.68426 2.31259 6.69259 2.28564L7.125 0.727718C7.41234 0.688037 7.70234 0.658358 8 0.658358ZM8 4.41446C6.2937 4.41446 4.90698 5.86882 4.90698 7.65836C4.90698 9.44789 6.2937 10.9023 8 10.9023C9.7063 10.9023 11.093 9.44789 11.093 7.65836C11.093 5.86882 9.7063 4.41446 8 4.41446ZM8 4.75592C9.53034 4.75592 10.7674 6.05336 10.7674 7.65836C10.7674 9.26335 9.53034 10.5608 8 10.5608C6.46966 10.5608 5.23256 9.26335 5.23256 7.65836C5.23256 6.05336 6.46966 4.75592 8 4.75592Z" fill="#BBBCBC" stroke="#BBBCBC" stroke-width="0.6"/>
</g>
</svg>
