<svg width="14" height="14" viewBox="0 0 14 14" fill="none" xmlns="http://www.w3.org/2000/svg">
<path d="M6.63322 12.9062H1.65954C1.42605 12.9062 1.28528 12.7759 1.22204 12.6983C1.11299 12.5641 1.0708 12.3896 1.10626 12.2192C1.67418 9.49138 4.0815 7.49924 6.86062 7.43462C6.90687 7.43633 6.95323 7.4375 7.00001 7.4375C9.05047 7.4375 10.7188 5.76932 10.7188 3.71875C10.7188 1.66818 9.05047 0 7.00001 0C4.94945 0 3.28126 1.66818 3.28126 3.71875C3.28126 4.93576 3.86894 6.01819 4.77545 6.69698C3.94499 6.97031 3.16569 7.39552 2.48359 7.9565C1.23315 8.98509 0.363707 10.4198 0.0354747 11.9963C-0.0673848 12.4903 0.0558758 12.9977 0.373533 13.3884C0.689588 13.7771 1.15838 14 1.65954 14H6.63322C6.93529 14 7.1801 13.7552 7.1801 13.4531C7.1801 13.1511 6.93529 12.9062 6.63322 12.9062ZM4.37501 3.71875C4.37501 2.27135 5.5525 1.09375 7.00001 1.09375C8.44742 1.09375 9.62501 2.27135 9.62501 3.71875C9.62501 5.14543 8.48096 6.30989 7.06207 6.343C7.04167 6.34065 7.02106 6.33916 7.00001 6.33916C6.95729 6.33916 6.91467 6.3398 6.87205 6.34055C5.48382 6.27368 4.37501 5.12332 4.37501 3.71875ZM12.0313 10.6914C12.0313 10.9935 11.7863 11.2383 11.4844 11.2383H10.6914C10.3894 11.2383 10.1445 10.9935 10.1445 10.6914V9.57031C10.1445 9.26825 10.3894 9.02344 10.6914 9.02344C10.9934 9.02344 11.2383 9.26825 11.2383 9.57031V10.1445H11.4844C11.7863 10.1445 12.0313 10.3893 12.0313 10.6914ZM10.6914 7.38281C8.86697 7.38281 7.38283 8.86707 7.38283 10.6914C7.38283 12.5157 8.86697 14 10.6914 14C12.5158 14 14 12.5157 14 10.6914C14 8.86707 12.5158 7.38281 10.6914 7.38281ZM10.6914 12.9062C9.47014 12.9062 8.47658 11.9127 8.47658 10.6914C8.47658 9.47012 9.47014 8.47656 10.6914 8.47656C11.9127 8.47656 12.9063 9.47012 12.9063 10.6914C12.9063 11.9127 11.9126 12.9062 10.6914 12.9062Z" fill="#BBBCBC"/>
</svg>
