<svg width="14" height="16" viewBox="0 0 14 16" fill="none" xmlns="http://www.w3.org/2000/svg">
<path d="M7 0.414551C3.14516 0.414551 0 3.6571 0 7.6313C0 8.54587 0.16129 9.42717 0.483871 10.2586C0.725806 10.9071 1.06452 11.5057 1.48387 12.0545L0.5 14.4157C0.435484 14.582 0.451613 14.7815 0.564516 14.9146C0.66129 15.031 0.790323 15.0975 0.951613 15.0975C0.983871 15.0975 1 15.0975 1.03226 15.0975L4.69355 14.4323C5.43548 14.6984 6.20968 14.8314 7 14.8314C10.8548 14.8314 14 11.5889 14 7.61467C14 3.6571 10.8548 0.414551 7 0.414551ZM7 13.8503C6.29032 13.8503 5.58065 13.7173 4.90323 13.4679C4.82258 13.4346 4.74194 13.4346 4.64516 13.4513L1.74194 13.9834L2.48387 12.1875C2.54839 12.0046 2.53226 11.8217 2.40323 11.672C1.96774 11.1399 1.6129 10.5413 1.37097 9.9094C1.09677 9.19438 0.951613 8.42947 0.951613 7.64793C0.967742 4.20584 3.67742 1.41226 7 1.41226C10.3226 1.41226 13.0323 4.20584 13.0323 7.6313C13.0323 11.0568 10.3226 13.8503 7 13.8503Z" fill="#BBBCBC"/>
<path d="M4.55362 8.69356C5.05245 8.69356 5.45684 8.27665 5.45684 7.76237C5.45684 7.24809 5.05245 6.83118 4.55362 6.83118C4.05478 6.83118 3.65039 7.24809 3.65039 7.76237C3.65039 8.27665 4.05478 8.69356 4.55362 8.69356Z" fill="#BBBCBC"/>
<path d="M7.00088 8.69356C7.49972 8.69356 7.90411 8.27665 7.90411 7.76237C7.90411 7.24809 7.49972 6.83118 7.00088 6.83118C6.50204 6.83118 6.09766 7.24809 6.09766 7.76237C6.09766 8.27665 6.50204 8.69356 7.00088 8.69356Z" fill="#BBBCBC"/>
<path d="M9.44815 8.69356C9.94699 8.69356 10.3514 8.27665 10.3514 7.76237C10.3514 7.24809 9.94699 6.83118 9.44815 6.83118C8.94931 6.83118 8.54492 7.24809 8.54492 7.76237C8.54492 8.27665 8.94931 8.69356 9.44815 8.69356Z" fill="#BBBCBC"/>
</svg>
