<svg width="79" height="79" viewBox="0 0 79 79" fill="none" xmlns="http://www.w3.org/2000/svg">
<g opacity="0.2">
<path d="M75.05 0H3.95C1.77283 0 0 1.77283 0 3.95V75.05C0 77.2272 1.77283 79 3.95 79H75.05C77.2272 79 79 77.2272 79 75.05V3.95C79 1.77283 77.2272 0 75.05 0ZM71.1 71.1H7.9V7.9H71.1V71.1Z" fill="#BBBCBC"/>
<path d="M16.5927 63.2001H62.4064C62.8419 63.2001 63.1996 62.8424 63.1996 62.407V54.2737C63.1996 52.532 62.0643 50.9613 60.4003 50.4792C46.4665 46.3893 32.5326 46.3893 18.5988 50.4792C16.9348 50.9613 15.7996 52.5475 15.7996 54.2737V62.407C15.7996 62.8424 16.1572 63.2001 16.5927 63.2001Z" fill="#BBBCBC"/>
<path d="M39.5001 39.4999C46.0472 39.4999 51.3502 34.197 51.3502 27.6499C51.3502 21.1029 46.0472 15.7999 39.5001 15.7999C32.9531 15.7999 27.6501 21.1029 27.6501 27.6499C27.6501 34.197 32.9531 39.4999 39.5001 39.4999Z" fill="#BBBCBC"/>
</g>
</svg>
